# xmcd
#
# Track frame offsets:
#	150
#	16847
#	32708
#	49938
#	62114
#	76857
#	94421
#	107673
#	120378
#	134320
#	147649
#	160574
#
# Disc length: 2397 seconds
#
# Revision: 0
# Processed by: cddbd v1.4PL0 Copyright (c) Steve Scherf et al.
# Submitted via: dBpowerAMP V4.0
#
DISCID=9a095b0c
DTITLE=Duelo - Desde Hoy
DYEAR=1900
DGENRE=Norteño
TTITLE0=Me Volví a Enamorar
TTITLE1=Un Minuto Mas
TTITLE2=El No Sabe
TTITLE3=Insomnio
TTITLE4=Un beso
TTITLE5=Ya No Quiero Extrañarte
TTITLE6=Por Amarte Tanto
TTITLE7=El Eco De Tu Amor
TTITLE8=Desde Hoy
TTITLE9=Nada Cambiara
TTITLE10=Quiere Olvidar
TTITLE11=Donde Esta El amor?
EXTD=
EXTT0=
EXTT1=
EXTT2=
EXTT3=
EXTT4=
EXTT5=
EXTT6=
EXTT7=
EXTT8=
EXTT9=
EXTT10=
EXTT11=
PLAYORDER=
